<svg xmlns="http://www.w3.org/2000/svg" width="23" height="22" viewBox="0 0 23 22"><defs><clipPath id="s6zia"><path fill="#fff" d="M0 .897C0 .403.383 0 .85 0h3.078c.382 0 .723.269.822.657L8.224 13.9h9.471l3.148-7.622H10.351c-.468 0-.851-.404-.851-.897s.383-.896.85-.896h11.797c.284 0 .553.15.71.403a.95.95 0 0 1 .07.852l-3.885 9.416c-.142.329-.44.538-.78.538H7.586a.859.859 0 0 1-.823-.658L3.29 1.793H.851C.383 1.793 0 1.39 0 .897zm4.85 19.07c0-1.12.864-2.032 1.927-2.032 1.064 0 1.929.911 1.929 2.032S7.84 22 6.777 22c-1.063 0-1.928-.912-1.928-2.033zm12.065.135c-.07-1.106.724-2.093 1.787-2.167 1.063-.075 1.985.777 2.056 1.883.028.553-.128 1.076-.468 1.48-.34.418-.808.657-1.319.702h-.141c-1.007 0-1.844-.837-1.915-1.898z"/></clipPath></defs><g><g><path fill="#fff" d="M0 .897C0 .403.383 0 .85 0h3.078c.382 0 .723.269.822.657L8.224 13.9h9.471l3.148-7.622H10.351c-.468 0-.851-.404-.851-.897s.383-.896.85-.896h11.797c.284 0 .553.15.71.403a.95.95 0 0 1 .07.852l-3.885 9.416c-.142.329-.44.538-.78.538H7.586a.859.859 0 0 1-.823-.658L3.29 1.793H.851C.383 1.793 0 1.39 0 .897zm4.85 19.07c0-1.12.864-2.032 1.927-2.032 1.064 0 1.929.911 1.929 2.032S7.84 22 6.777 22c-1.063 0-1.928-.912-1.928-2.033zm12.065.135c-.07-1.106.724-2.093 1.787-2.167 1.063-.075 1.985.777 2.056 1.883.028.553-.128 1.076-.468 1.48-.34.418-.808.657-1.319.702h-.141c-1.007 0-1.844-.837-1.915-1.898z"/><path fill="none" stroke="#fff" stroke-linecap="round" stroke-linejoin="round" stroke-miterlimit="50" stroke-width="4" d="M0 .897C0 .403.383 0 .85 0h3.078c.382 0 .723.269.822.657L8.224 13.9h9.471l3.148-7.622H10.351c-.468 0-.851-.404-.851-.897s.383-.896.85-.896h11.797c.284 0 .553.15.71.403a.95.95 0 0 1 .07.852l-3.885 9.416c-.142.329-.44.538-.78.538H7.586a.859.859 0 0 1-.823-.658L3.29 1.793H.851C.383 1.793 0 1.39 0 .897zm4.85 19.07c0-1.12.864-2.032 1.927-2.032 1.064 0 1.929.911 1.929 2.032S7.84 22 6.777 22c-1.063 0-1.928-.912-1.928-2.033zm12.065.135c-.07-1.106.724-2.093 1.787-2.167 1.063-.075 1.985.777 2.056 1.883.028.553-.128 1.076-.468 1.48-.34.418-.808.657-1.319.702h-.141c-1.007 0-1.844-.837-1.915-1.898z" clip-path="url(&quot;#s6zia&quot;)"/></g></g></svg>